<svg xmlns="http://www.w3.org/2000/svg" xmlns:xlink="http://www.w3.org/1999/xlink" width="142" height="145" viewBox="0 0 142 145">
  <defs>
    <clipPath id="clip-path">
      <rect width="142" height="145" fill="none"/>
    </clipPath>
  </defs>
  <g id="Repeat_Grid_55" data-name="Repeat Grid 55" clip-path="url(#clip-path)">
    <g transform="translate(-151 -415)">
      <circle id="Ellipse_12" data-name="Ellipse 12" cx="2.5" cy="2.5" r="2.5" transform="translate(151 415)" fill="#9ba4b4"/>
    </g>
    <g transform="translate(-126 -415)">
      <circle id="Ellipse_12-2" data-name="Ellipse 12" cx="2.5" cy="2.5" r="2.5" transform="translate(151 415)" fill="#9ba4b4"/>
    </g>
    <g transform="translate(-101 -415)">
      <circle id="Ellipse_12-3" data-name="Ellipse 12" cx="2.5" cy="2.5" r="2.5" transform="translate(151 415)" fill="#9ba4b4"/>
    </g>
    <g transform="translate(-76 -415)">
      <circle id="Ellipse_12-4" data-name="Ellipse 12" cx="2.5" cy="2.5" r="2.5" transform="translate(151 415)" fill="#9ba4b4"/>
    </g>
    <g transform="translate(-51 -415)">
      <circle id="Ellipse_12-5" data-name="Ellipse 12" cx="2.5" cy="2.5" r="2.5" transform="translate(151 415)" fill="#9ba4b4"/>
    </g>
    <g transform="translate(-26 -415)">
      <circle id="Ellipse_12-6" data-name="Ellipse 12" cx="2.5" cy="2.5" r="2.5" transform="translate(151 415)" fill="#9ba4b4"/>
    </g>
    <g transform="translate(-151 -390)">
      <circle id="Ellipse_12-7" data-name="Ellipse 12" cx="2.5" cy="2.5" r="2.5" transform="translate(151 415)" fill="#9ba4b4"/>
    </g>
    <g transform="translate(-126 -390)">
      <circle id="Ellipse_12-8" data-name="Ellipse 12" cx="2.5" cy="2.5" r="2.5" transform="translate(151 415)" fill="#9ba4b4"/>
    </g>
    <g transform="translate(-101 -390)">
      <circle id="Ellipse_12-9" data-name="Ellipse 12" cx="2.5" cy="2.5" r="2.5" transform="translate(151 415)" fill="#9ba4b4"/>
    </g>
    <g transform="translate(-76 -390)">
      <circle id="Ellipse_12-10" data-name="Ellipse 12" cx="2.5" cy="2.5" r="2.5" transform="translate(151 415)" fill="#9ba4b4"/>
    </g>
    <g transform="translate(-51 -390)">
      <circle id="Ellipse_12-11" data-name="Ellipse 12" cx="2.5" cy="2.5" r="2.5" transform="translate(151 415)" fill="#9ba4b4"/>
    </g>
    <g transform="translate(-26 -390)">
      <circle id="Ellipse_12-12" data-name="Ellipse 12" cx="2.5" cy="2.5" r="2.5" transform="translate(151 415)" fill="#9ba4b4"/>
    </g>
    <g transform="translate(-151 -365)">
      <circle id="Ellipse_12-13" data-name="Ellipse 12" cx="2.5" cy="2.5" r="2.5" transform="translate(151 415)" fill="#9ba4b4"/>
    </g>
    <g transform="translate(-126 -365)">
      <circle id="Ellipse_12-14" data-name="Ellipse 12" cx="2.5" cy="2.5" r="2.5" transform="translate(151 415)" fill="#9ba4b4"/>
    </g>
    <g transform="translate(-101 -365)">
      <circle id="Ellipse_12-15" data-name="Ellipse 12" cx="2.5" cy="2.5" r="2.5" transform="translate(151 415)" fill="#9ba4b4"/>
    </g>
    <g transform="translate(-76 -365)">
      <circle id="Ellipse_12-16" data-name="Ellipse 12" cx="2.5" cy="2.5" r="2.5" transform="translate(151 415)" fill="#9ba4b4"/>
    </g>
    <g transform="translate(-51 -365)">
      <circle id="Ellipse_12-17" data-name="Ellipse 12" cx="2.5" cy="2.5" r="2.5" transform="translate(151 415)" fill="#9ba4b4"/>
    </g>
    <g transform="translate(-26 -365)">
      <circle id="Ellipse_12-18" data-name="Ellipse 12" cx="2.5" cy="2.5" r="2.5" transform="translate(151 415)" fill="#9ba4b4"/>
    </g>
    <g transform="translate(-151 -340)">
      <circle id="Ellipse_12-19" data-name="Ellipse 12" cx="2.5" cy="2.5" r="2.5" transform="translate(151 415)" fill="#9ba4b4"/>
    </g>
    <g transform="translate(-126 -340)">
      <circle id="Ellipse_12-20" data-name="Ellipse 12" cx="2.5" cy="2.5" r="2.5" transform="translate(151 415)" fill="#9ba4b4"/>
    </g>
    <g transform="translate(-101 -340)">
      <circle id="Ellipse_12-21" data-name="Ellipse 12" cx="2.5" cy="2.5" r="2.5" transform="translate(151 415)" fill="#9ba4b4"/>
    </g>
    <g transform="translate(-76 -340)">
      <circle id="Ellipse_12-22" data-name="Ellipse 12" cx="2.5" cy="2.5" r="2.5" transform="translate(151 415)" fill="#9ba4b4"/>
    </g>
    <g transform="translate(-51 -340)">
      <circle id="Ellipse_12-23" data-name="Ellipse 12" cx="2.5" cy="2.5" r="2.5" transform="translate(151 415)" fill="#9ba4b4"/>
    </g>
    <g transform="translate(-26 -340)">
      <circle id="Ellipse_12-24" data-name="Ellipse 12" cx="2.5" cy="2.5" r="2.5" transform="translate(151 415)" fill="#9ba4b4"/>
    </g>
    <g transform="translate(-151 -315)">
      <circle id="Ellipse_12-25" data-name="Ellipse 12" cx="2.5" cy="2.5" r="2.5" transform="translate(151 415)" fill="#9ba4b4"/>
    </g>
    <g transform="translate(-126 -315)">
      <circle id="Ellipse_12-26" data-name="Ellipse 12" cx="2.5" cy="2.5" r="2.5" transform="translate(151 415)" fill="#9ba4b4"/>
    </g>
    <g transform="translate(-101 -315)">
      <circle id="Ellipse_12-27" data-name="Ellipse 12" cx="2.5" cy="2.5" r="2.5" transform="translate(151 415)" fill="#9ba4b4"/>
    </g>
    <g transform="translate(-76 -315)">
      <circle id="Ellipse_12-28" data-name="Ellipse 12" cx="2.5" cy="2.5" r="2.5" transform="translate(151 415)" fill="#9ba4b4"/>
    </g>
    <g transform="translate(-51 -315)">
      <circle id="Ellipse_12-29" data-name="Ellipse 12" cx="2.5" cy="2.5" r="2.5" transform="translate(151 415)" fill="#9ba4b4"/>
    </g>
    <g transform="translate(-26 -315)">
      <circle id="Ellipse_12-30" data-name="Ellipse 12" cx="2.5" cy="2.5" r="2.5" transform="translate(151 415)" fill="#9ba4b4"/>
    </g>
    <g transform="translate(-151 -290)">
      <circle id="Ellipse_12-31" data-name="Ellipse 12" cx="2.5" cy="2.5" r="2.5" transform="translate(151 415)" fill="#9ba4b4"/>
    </g>
    <g transform="translate(-126 -290)">
      <circle id="Ellipse_12-32" data-name="Ellipse 12" cx="2.5" cy="2.5" r="2.5" transform="translate(151 415)" fill="#9ba4b4"/>
    </g>
    <g transform="translate(-101 -290)">
      <circle id="Ellipse_12-33" data-name="Ellipse 12" cx="2.5" cy="2.5" r="2.5" transform="translate(151 415)" fill="#9ba4b4"/>
    </g>
    <g transform="translate(-76 -290)">
      <circle id="Ellipse_12-34" data-name="Ellipse 12" cx="2.5" cy="2.5" r="2.5" transform="translate(151 415)" fill="#9ba4b4"/>
    </g>
    <g transform="translate(-51 -290)">
      <circle id="Ellipse_12-35" data-name="Ellipse 12" cx="2.5" cy="2.5" r="2.5" transform="translate(151 415)" fill="#9ba4b4"/>
    </g>
    <g transform="translate(-26 -290)">
      <circle id="Ellipse_12-36" data-name="Ellipse 12" cx="2.5" cy="2.5" r="2.5" transform="translate(151 415)" fill="#9ba4b4"/>
    </g>
  </g>
</svg>
